<?xml version="1.0" standalone="no"?>
<!DOCTYPE svg PUBLIC "-//W3C//DTD SVG 20010904//EN"
 "http://www.w3.org/TR/2001/REC-SVG-20010904/DTD/svg10.dtd">
<svg version="1.0" xmlns="http://www.w3.org/2000/svg"
 width="512.000000pt" height="512.000000pt" viewBox="0 0 512.000000 512.000000"
 preserveAspectRatio="xMidYMid meet">

<g transform="translate(0.000000,512.000000) scale(0.100000,-0.100000)"
fill="#000000" stroke="none">
<path d="M2005 4803 c-32 -8 -55 -34 -55 -64 0 -23 64 -192 251 -661 l19 -48
-104 0 -104 0 -142 225 c-78 124 -152 232 -163 240 -15 11 -48 15 -115 15 -85
0 -95 -2 -117 -25 -30 -29 -29 -12 -5 -260 l20 -200 -23 -15 c-147 -96 -155
-285 -15 -377 l41 -28 362 -5 362 -5 -133 -335 c-73 -184 -133 -347 -134 -362
0 -16 9 -37 20 -48 18 -18 33 -20 163 -20 78 0 147 4 153 8 6 4 165 176 353
382 l342 375 323 5 323 5 41 28 c83 54 118 149 91 244 -16 59 -81 127 -135
142 -24 7 -157 11 -340 11 l-300 0 -348 384 -347 383 -52 7 c-59 7 -202 6
-232 -1z m495 -449 c151 -168 277 -309 278 -314 2 -6 -75 -10 -201 -10 l-205
0 -117 297 c-65 163 -120 305 -123 315 -4 16 2 18 44 17 l49 0 275 -305z
m-729 -209 c76 -121 148 -228 160 -237 20 -17 75 -18 836 -18 l814 0 24 -25
c30 -29 32 -64 6 -96 l-19 -24 -338 -5 -338 -5 -347 -380 -347 -380 -46 -3
c-28 -2 -46 1 -46 8 0 6 59 158 130 338 72 181 130 341 130 355 0 15 -9 36
-20 47 -19 19 -33 20 -425 20 l-406 0 -26 26 c-20 20 -24 31 -19 57 7 36 38
67 68 67 26 0 56 17 67 38 7 12 3 84 -9 213 -11 107 -20 202 -20 212 0 49 44
-5 171 -208z"/>
<path d="M2290 2625 c-490 -61 -933 -270 -1286 -607 -416 -398 -658 -920 -694
-1496 -8 -139 -5 -167 25 -192 27 -22 4423 -22 4450 0 30 25 33 53 25 192 -15
239 -63 460 -145 673 -306 792 -1034 1350 -1874 1435 -136 13 -370 11 -501 -5z
m471 -135 c803 -81 1475 -591 1772 -1346 67 -171 120 -407 133 -591 l7 -93
-2112 0 -2111 0 0 44 c0 84 30 276 64 409 95 370 281 694 555 967 449 448
1071 672 1692 610z"/>
</g>
</svg>
